<?xml version="1.0" encoding="UTF-8"?>
<svg id="Example_Gallery" data-name="Example Gallery" xmlns="http://www.w3.org/2000/svg" xmlns:xlink="http://www.w3.org/1999/xlink" viewBox="0 0 1008 1008">
  <defs>
    <style>
      .cls-1 {
        fill: none;
      }

      .cls-2 {
        fill: #249bec;
      }

      .cls-3 {
        fill: #1673f9;
      }

      .cls-4 {
        fill: #146ffa;
      }

      .cls-5 {
        fill: #1778f7;
      }

      .cls-6 {
        fill: #36cade;
      }

      .cls-7 {
        fill: #1a81f4;
      }

      .cls-8 {
        fill: url(#linear-gradient-7);
      }

      .cls-9 {
        fill: url(#linear-gradient-3);
      }

      .cls-10 {
        fill: url(#linear-gradient-2);
      }

      .cls-11 {
        fill: #3ad2dc;
      }

      .cls-12 {
        fill: url(#linear-gradient);
      }

      .cls-13 {
        fill: #2192ef;
      }

      .cls-14 {
        fill: #3ddbd9;
      }

      .cls-15 {
        fill: #126bfb;
      }

      .cls-16 {
        fill: #3d3d3d;
      }

      .cls-17 {
        fill: #38cedd;
      }

      .cls-18 {
        fill: url(#linear-gradient-4);
      }

      .cls-18, .cls-19, .cls-20 {
        opacity: .7;
      }

      .cls-21 {
        fill: url(#linear-gradient-5);
      }

      .cls-21, .cls-22, .cls-23, .cls-24 {
        opacity: .4;
      }

      .cls-22 {
        fill: url(#linear-gradient-8);
      }

      .cls-25 {
        fill: url(#linear-gradient-9);
      }

      .cls-25, .cls-26, .cls-27, .cls-28 {
        opacity: .6;
      }

      .cls-26 {
        fill: url(#linear-gradient-6);
      }

      .cls-29 {
        fill: #fff;
      }

      .cls-30 {
        fill: #2bace7;
      }

      .cls-31 {
        fill: #2eb4e5;
      }

      .cls-32 {
        fill: #1e89f2;
      }

      .cls-33 {
        fill: #197cf6;
      }

      .cls-34 {
        fill: #565656;
      }

      .cls-19 {
        fill: url(#linear-gradient-18);
      }

      .cls-20 {
        fill: url(#linear-gradient-17);
      }

      .cls-27 {
        fill: url(#linear-gradient-12);
      }

      .cls-28 {
        fill: url(#linear-gradient-15);
      }

      .cls-23 {
        fill: url(#linear-gradient-16);
      }

      .cls-24 {
        fill: url(#linear-gradient-11);
      }

      .cls-35 {
        fill: #33c1e1;
      }

      .cls-36 {
        fill: #35c6df;
      }

      .cls-37 {
        fill: #30b9e3;
      }

      .cls-38 {
        fill: url(#linear-gradient-10);
      }

      .cls-39 {
        fill: url(#linear-gradient-13);
      }

      .cls-40 {
        fill: url(#linear-gradient-14);
      }

      .cls-41 {
        fill: #0f62fe;
      }

      .cls-42 {
        opacity: .5;
      }

      .cls-43 {
        opacity: .25;
      }

      .cls-44 {
        fill: #282828;
      }

      .cls-45 {
        fill: #054ada;
      }

      .cls-46 {
        fill: #1f8ef0;
      }

      .cls-47 {
        fill: #3bd7da;
      }

      .cls-48 {
        fill: #1c85f3;
      }

      .cls-49 {
        fill: #2db0e6;
      }

      .cls-50 {
        fill: #32bde2;
      }

      .cls-51 {
        fill: #269feb;
      }

      .cls-52 {
        fill: #1166fd;
      }

      .cls-53 {
        fill: #2396ee;
      }

      .cls-54 {
        fill: #0062ff;
      }

      .cls-55 {
        clip-path: url(#clippath);
      }

      .cls-56 {
        fill: #28a3ea;
      }

      .cls-57 {
        fill: #29a8e8;
      }
    </style>
    <clipPath id="clippath">
      <rect class="cls-1" y="-4.55" width="1008" height="1008"/>
    </clipPath>
    <linearGradient id="linear-gradient" x1="303.99" y1="536.82" x2="719.99" y2="536.82" gradientUnits="userSpaceOnUse">
      <stop offset="0" stop-color="#0062ff"/>
      <stop offset=".44" stop-color="#0086e0"/>
      <stop offset="1" stop-color="#00bab6"/>
    </linearGradient>
    <linearGradient id="linear-gradient-2" y1="599.18" y2="599.18" xlink:href="#linear-gradient"/>
    <linearGradient id="linear-gradient-3" x1="303.99" y1="661.53" x2="719.99" y2="661.53" xlink:href="#linear-gradient"/>
    <linearGradient id="linear-gradient-4" x1="511.99" y1="529.89" x2="511.99" y2="-130.59" gradientUnits="userSpaceOnUse">
      <stop offset="0" stop-color="#fff" stop-opacity=".3"/>
      <stop offset=".5" stop-color="#fff" stop-opacity=".16"/>
      <stop offset="1" stop-color="#fff" stop-opacity="0"/>
    </linearGradient>
    <linearGradient id="linear-gradient-5" x1="395.01" y1="188.93" x2="581.01" y2="298.65" xlink:href="#linear-gradient"/>
    <linearGradient id="linear-gradient-6" x1="436.46" y1="299.48" x2="628.45" y2="191.06" xlink:href="#linear-gradient"/>
    <linearGradient id="linear-gradient-7" x1="319.58" y1="155.77" x2="700.62" y2="155.77" xlink:href="#linear-gradient"/>
    <linearGradient id="linear-gradient-8" x1="341.89" y1="278.99" x2="527.88" y2="388.7" xlink:href="#linear-gradient"/>
    <linearGradient id="linear-gradient-9" x1="437.02" y1="300.48" x2="629.01" y2="192.05" xlink:href="#linear-gradient"/>
    <linearGradient id="linear-gradient-10" x1="319.58" y1="215.82" x2="700.62" y2="215.82" xlink:href="#linear-gradient"/>
    <linearGradient id="linear-gradient-11" x1="395.58" y1="187.97" x2="581.57" y2="297.68" xlink:href="#linear-gradient"/>
    <linearGradient id="linear-gradient-12" x1="487.32" y1="389.54" x2="679.31" y2="281.12" xlink:href="#linear-gradient"/>
    <linearGradient id="linear-gradient-13" x1="319.58" y1="215.82" x2="700.62" y2="215.82" xlink:href="#linear-gradient"/>
    <linearGradient id="linear-gradient-14" x1="319.58" y1="275.86" x2="700.62" y2="275.86" xlink:href="#linear-gradient"/>
    <linearGradient id="linear-gradient-15" x1="487.88" y1="390.54" x2="679.87" y2="282.11" xlink:href="#linear-gradient"/>
    <linearGradient id="linear-gradient-16" x1="342.46" y1="278.02" x2="528.45" y2="387.74" xlink:href="#linear-gradient"/>
    <linearGradient id="linear-gradient-17" x1="159.74" y1="665.64" x2="159.74" y2="465.23" gradientUnits="userSpaceOnUse">
      <stop offset="0" stop-color="#c9deff" stop-opacity=".3"/>
      <stop offset=".5" stop-color="#e2edff" stop-opacity=".16"/>
      <stop offset="1" stop-color="#fff" stop-opacity="0"/>
    </linearGradient>
    <linearGradient id="linear-gradient-18" x1="863.74" x2="863.74" y2="465.23" xlink:href="#linear-gradient-17"/>
  </defs>
  <g id="Ex-1">
    <g class="cls-55">
      <g>
        <path class="cls-52" d="M101.68,637.48c-3.14-1.8-8.2-1.8-11.32,0-3.11,1.8-3.09,4.72.04,6.52s8.2,1.8,11.31,0,3.1-4.72-.04-6.52"/>
        <path class="cls-15" d="M133.68,619.01c-3.14-1.8-8.2-1.8-11.32,0-3.11,1.8-3.09,4.72.04,6.52,3.14,1.8,8.2,1.8,11.31,0,3.11-1.8,3.1-4.72-.04-6.52"/>
        <path class="cls-4" d="M165.68,600.53c-3.14-1.8-8.2-1.8-11.32,0-3.11,1.8-3.09,4.72.04,6.52,3.14,1.8,8.2,1.8,11.31,0,3.11-1.8,3.1-4.72-.04-6.52"/>
        <path class="cls-3" d="M197.68,582.06c-3.14-1.8-8.2-1.8-11.32,0-3.11,1.8-3.09,4.72.04,6.52,3.14,1.8,8.2,1.8,11.31,0,3.11-1.8,3.1-4.72-.04-6.52"/>
        <path class="cls-5" d="M229.68,563.58c-3.14-1.8-8.2-1.8-11.32,0-3.11,1.8-3.09,4.72.04,6.52,3.14,1.8,8.2,1.8,11.31,0,3.11-1.8,3.1-4.72-.04-6.52"/>
        <path class="cls-33" d="M261.68,545.11c-3.14-1.8-8.2-1.8-11.32,0-3.11,1.8-3.09,4.72.04,6.52s8.2,1.8,11.31,0c3.11-1.8,3.1-4.72-.04-6.52"/>
        <path class="cls-7" d="M293.68,526.63c-3.14-1.8-8.2-1.8-11.32,0-3.11,1.8-3.09,4.72.04,6.52,3.14,1.8,8.2,1.8,11.31,0,3.11-1.8,3.1-4.72-.04-6.52"/>
        <path class="cls-48" d="M325.68,508.16c-3.14-1.8-8.2-1.8-11.32,0-3.11,1.8-3.09,4.72.04,6.52,3.14,1.8,8.2,1.8,11.31,0,3.11-1.8,3.1-4.72-.04-6.52"/>
        <path class="cls-32" d="M357.68,489.68c-3.14-1.8-8.2-1.8-11.32,0s-3.09,4.72.04,6.52c3.14,1.8,8.2,1.8,11.31,0,3.11-1.8,3.1-4.72-.04-6.52"/>
        <path class="cls-46" d="M389.68,471.21c-3.14-1.8-8.2-1.8-11.32,0-3.11,1.8-3.09,4.72.04,6.52s8.2,1.8,11.31,0c3.11-1.8,3.1-4.72-.04-6.52"/>
        <path class="cls-13" d="M421.68,452.73c-3.14-1.8-8.2-1.8-11.32,0-3.11,1.8-3.09,4.72.04,6.52s8.2,1.8,11.31,0c3.11-1.8,3.1-4.72-.04-6.52"/>
        <path class="cls-53" d="M453.68,434.26c-3.14-1.8-8.2-1.8-11.32,0-3.11,1.8-3.09,4.72.04,6.52,3.14,1.8,8.2,1.8,11.31,0,3.11-1.8,3.1-4.72-.04-6.52"/>
        <path class="cls-2" d="M485.68,415.78c-3.14-1.8-8.2-1.8-11.32,0-3.11,1.8-3.09,4.72.04,6.52,3.14,1.8,8.2,1.8,11.31,0,3.11-1.8,3.1-4.72-.04-6.52"/>
        <path class="cls-51" d="M517.68,397.31c-3.14-1.8-8.2-1.8-11.32,0-3.11,1.8-3.09,4.72.04,6.52,3.14,1.8,8.2,1.8,11.31,0,3.11-1.8,3.1-4.72-.04-6.52"/>
        <path class="cls-56" d="M549.68,415.78c-3.14-1.8-8.2-1.8-11.32,0-3.11,1.8-3.09,4.72.04,6.52,3.14,1.8,8.2,1.8,11.31,0,3.11-1.8,3.1-4.72-.04-6.52"/>
        <path class="cls-57" d="M581.68,434.26c-3.14-1.8-8.2-1.8-11.32,0s-3.09,4.72.04,6.52c3.14,1.8,8.2,1.8,11.31,0,3.11-1.8,3.1-4.72-.04-6.52"/>
        <path class="cls-30" d="M613.68,452.73c-3.14-1.8-8.2-1.8-11.32,0-3.11,1.8-3.09,4.72.04,6.52,3.14,1.8,8.2,1.8,11.31,0,3.11-1.8,3.1-4.72-.04-6.52"/>
        <path class="cls-49" d="M645.68,471.21c-3.14-1.8-8.2-1.8-11.32,0-3.11,1.8-3.09,4.72.04,6.52,3.14,1.8,8.2,1.8,11.31,0,3.11-1.8,3.1-4.72-.04-6.52"/>
        <path class="cls-31" d="M677.68,489.68c-3.14-1.8-8.2-1.8-11.32,0-3.11,1.8-3.09,4.72.04,6.52,3.14,1.8,8.2,1.8,11.31,0,3.11-1.8,3.1-4.72-.04-6.52"/>
        <path class="cls-37" d="M709.68,508.16c-3.14-1.8-8.2-1.8-11.32,0-3.11,1.8-3.09,4.72.04,6.52s8.2,1.8,11.31,0c3.11-1.8,3.1-4.72-.04-6.52"/>
        <path class="cls-50" d="M741.68,526.63c-3.14-1.8-8.2-1.8-11.32,0-3.11,1.8-3.09,4.72.04,6.52,3.14,1.8,8.2,1.8,11.31,0,3.11-1.8,3.1-4.72-.04-6.52"/>
        <path class="cls-35" d="M773.68,545.11c-3.14-1.8-8.2-1.8-11.32,0-3.11,1.8-3.09,4.72.04,6.52s8.2,1.8,11.31,0,3.1-4.72-.04-6.52"/>
        <path class="cls-36" d="M805.68,563.58c-3.14-1.8-8.2-1.8-11.32,0-3.11,1.8-3.09,4.72.04,6.52,3.14,1.8,8.2,1.8,11.31,0,3.11-1.8,3.1-4.72-.04-6.52"/>
        <path class="cls-6" d="M837.68,582.06c-3.14-1.8-8.2-1.8-11.32,0-3.11,1.8-3.09,4.72.04,6.52s8.2,1.8,11.31,0c3.11-1.8,3.1-4.72-.04-6.52"/>
        <path class="cls-17" d="M869.68,600.53c-3.14-1.8-8.2-1.8-11.32,0-3.11,1.8-3.09,4.72.04,6.52,3.14,1.8,8.2,1.8,11.31,0,3.11-1.8,3.1-4.72-.04-6.52"/>
        <path class="cls-11" d="M901.68,619.01c-3.14-1.8-8.2-1.8-11.32,0-3.11,1.8-3.09,4.72.04,6.52s8.2,1.8,11.31,0,3.1-4.72-.04-6.52"/>
        <path class="cls-47" d="M933.68,637.48c-3.14-1.8-8.2-1.8-11.32,0-3.11,1.8-3.09,4.72.04,6.52,3.14,1.8,8.2,1.8,11.31,0,3.11-1.8,3.1-4.72-.04-6.52"/>
        <path class="cls-14" d="M965.68,655.96c-3.14-1.8-8.2-1.8-11.32,0s-3.09,4.72.04,6.52c3.14,1.8,8.2,1.8,11.31,0,3.11-1.8,3.1-4.72-.04-6.52"/>
        <path class="cls-47" d="M933.68,674.44c-3.14-1.8-8.2-1.8-11.32,0-3.11,1.8-3.09,4.72.04,6.52,3.14,1.8,8.2,1.8,11.31,0,3.11-1.8,3.1-4.72-.04-6.52"/>
        <path class="cls-11" d="M901.68,692.91c-3.14-1.8-8.2-1.8-11.32,0-3.11,1.8-3.09,4.72.04,6.52s8.2,1.8,11.31,0,3.1-4.72-.04-6.52"/>
        <path class="cls-17" d="M869.68,711.39c-3.14-1.8-8.2-1.8-11.32,0-3.11,1.8-3.09,4.72.04,6.52,3.14,1.8,8.2,1.8,11.31,0,3.11-1.8,3.1-4.72-.04-6.52"/>
        <path class="cls-6" d="M837.68,729.86c-3.14-1.8-8.2-1.8-11.32,0-3.11,1.8-3.09,4.72.04,6.52,3.14,1.8,8.2,1.8,11.31,0,3.11-1.8,3.1-4.72-.04-6.52"/>
        <path class="cls-36" d="M805.68,748.34c-3.14-1.8-8.2-1.8-11.32,0-3.11,1.8-3.09,4.72.04,6.52,3.14,1.8,8.2,1.8,11.31,0s3.1-4.72-.04-6.52"/>
        <path class="cls-35" d="M773.68,766.81c-3.14-1.8-8.2-1.8-11.32,0-3.11,1.8-3.09,4.72.04,6.52,3.14,1.8,8.2,1.8,11.31,0,3.11-1.8,3.1-4.72-.04-6.52"/>
        <path class="cls-50" d="M741.68,785.29c-3.14-1.8-8.2-1.8-11.32,0-3.11,1.8-3.09,4.72.04,6.52,3.14,1.8,8.2,1.8,11.31,0,3.11-1.8,3.1-4.72-.04-6.52"/>
        <path class="cls-37" d="M709.68,803.76c-3.14-1.8-8.2-1.8-11.32,0-3.11,1.8-3.09,4.72.04,6.52s8.2,1.8,11.31,0c3.11-1.8,3.1-4.72-.04-6.52"/>
        <path class="cls-31" d="M677.68,822.24c-3.14-1.8-8.2-1.8-11.32,0-3.11,1.8-3.09,4.72.04,6.52,3.14,1.8,8.2,1.8,11.31,0,3.11-1.8,3.1-4.72-.04-6.52"/>
        <path class="cls-49" d="M645.68,840.71c-3.14-1.8-8.2-1.8-11.32,0-3.11,1.8-3.09,4.72.04,6.52,3.14,1.8,8.2,1.8,11.31,0,3.11-1.8,3.1-4.72-.04-6.52"/>
        <path class="cls-30" d="M613.68,859.19c-3.14-1.8-8.2-1.8-11.32,0-3.11,1.8-3.09,4.72.04,6.52s8.2,1.8,11.31,0c3.11-1.8,3.1-4.72-.04-6.52"/>
        <path class="cls-57" d="M581.68,877.66c-3.14-1.8-8.2-1.8-11.32,0-3.11,1.8-3.09,4.72.04,6.52,3.14,1.8,8.2,1.8,11.31,0,3.11-1.8,3.1-4.72-.04-6.52"/>
        <path class="cls-56" d="M549.68,896.14c-3.14-1.8-8.2-1.8-11.32,0-3.11,1.8-3.09,4.72.04,6.52,3.14,1.8,8.2,1.8,11.31,0,3.11-1.8,3.1-4.72-.04-6.52"/>
        <path class="cls-51" d="M517.68,914.61c-3.14-1.8-8.2-1.8-11.32,0-3.11,1.8-3.09,4.72.04,6.52s8.2,1.8,11.31,0c3.11-1.8,3.1-4.72-.04-6.52"/>
        <path class="cls-2" d="M485.68,896.14c-3.14-1.8-8.2-1.8-11.32,0-3.11,1.8-3.09,4.72.04,6.52,3.14,1.8,8.2,1.8,11.31,0,3.11-1.8,3.1-4.72-.04-6.52"/>
        <path class="cls-53" d="M453.68,877.66c-3.14-1.8-8.2-1.8-11.32,0-3.11,1.8-3.09,4.72.04,6.52s8.2,1.8,11.31,0c3.11-1.8,3.1-4.72-.04-6.52"/>
        <path class="cls-13" d="M421.68,859.19c-3.14-1.8-8.2-1.8-11.32,0-3.11,1.8-3.09,4.72.04,6.52,3.14,1.8,8.2,1.8,11.31,0,3.11-1.8,3.1-4.72-.04-6.52"/>
        <path class="cls-46" d="M389.68,840.71c-3.14-1.8-8.2-1.8-11.32,0-3.11,1.8-3.09,4.72.04,6.52,3.14,1.8,8.2,1.8,11.31,0,3.11-1.8,3.1-4.72-.04-6.52"/>
        <path class="cls-32" d="M357.68,822.24c-3.14-1.8-8.2-1.8-11.32,0-3.11,1.8-3.09,4.72.04,6.52s8.2,1.8,11.31,0c3.11-1.8,3.1-4.72-.04-6.52"/>
        <path class="cls-48" d="M325.68,803.76c-3.14-1.8-8.2-1.8-11.32,0-3.11,1.8-3.09,4.72.04,6.52,3.14,1.8,8.2,1.8,11.31,0,3.11-1.8,3.1-4.72-.04-6.52"/>
        <path class="cls-7" d="M293.68,785.29c-3.14-1.8-8.2-1.8-11.32,0-3.11,1.8-3.09,4.72.04,6.52s8.2,1.8,11.31,0c3.11-1.8,3.1-4.72-.04-6.52"/>
        <path class="cls-33" d="M261.68,766.81c-3.14-1.8-8.2-1.8-11.32,0-3.11,1.8-3.09,4.72.04,6.52,3.14,1.8,8.2,1.8,11.31,0,3.11-1.8,3.1-4.72-.04-6.52"/>
        <path class="cls-5" d="M229.68,748.34c-3.14-1.8-8.2-1.8-11.32,0-3.11,1.8-3.09,4.72.04,6.52,3.14,1.8,8.2,1.8,11.31,0,3.11-1.8,3.1-4.72-.04-6.52"/>
        <path class="cls-3" d="M197.68,729.86c-3.14-1.8-8.2-1.8-11.32,0-3.11,1.8-3.09,4.72.04,6.52,3.14,1.8,8.2,1.8,11.31,0,3.11-1.8,3.1-4.72-.04-6.52"/>
        <path class="cls-4" d="M165.68,711.39c-3.14-1.8-8.2-1.8-11.32,0s-3.09,4.72.04,6.52c3.14,1.8,8.2,1.8,11.31,0,3.11-1.8,3.1-4.72-.04-6.52"/>
        <path class="cls-15" d="M133.68,692.91c-3.14-1.8-8.2-1.8-11.32,0-3.11,1.8-3.09,4.72.04,6.52s8.2,1.8,11.31,0,3.1-4.72-.04-6.52"/>
        <path class="cls-52" d="M101.68,674.44c-3.14-1.8-8.2-1.8-11.32,0s-3.09,4.72.04,6.52c3.14,1.8,8.2,1.8,11.31,0,3.11-1.8,3.1-4.72-.04-6.52"/>
        <path class="cls-41" d="M69.68,655.96c-3.14-1.8-8.2-1.8-11.32,0-3.11,1.8-3.09,4.72.04,6.52s8.2,1.8,11.31,0c3.11-1.8,3.1-4.72-.04-6.52"/>
      </g>
      <g>
        <polygon points="511.99 594.56 303.99 714.65 511.99 834.74 719.99 714.65 511.99 594.56"/>
        <polygon class="cls-44" points="303.99 419.04 303.99 659.22 511.99 779.31 511.99 539.13 303.99 419.04"/>
        <polygon class="cls-16" points="511.99 779.31 719.99 659.22 719.99 419.04 511.99 539.13 511.99 779.31"/>
        <polygon class="cls-12" points="303.99 474.47 303.99 479.09 511.99 599.18 719.99 479.09 719.99 474.47 511.99 594.56 303.99 474.47"/>
        <polygon class="cls-10" points="303.99 536.82 303.99 541.44 511.99 661.53 719.99 541.44 719.99 536.82 511.99 656.91 303.99 536.82"/>
        <polygon class="cls-9" points="303.99 599.18 303.99 603.8 511.99 723.88 719.99 603.8 719.99 599.18 511.99 719.27 303.99 599.18"/>
        <path class="cls-34" d="M511.99,298.95l-208,120.09,208,120.09,208-120.09-208-120.09ZM511.99,529.89l-192-110.85,192-110.85,192,110.85-192,110.85Z"/>
        <polygon class="cls-16" points="511.99 529.89 319.99 419.04 511.99 308.19 511.99 529.89"/>
        <polygon class="cls-44" points="511.99 529.89 703.99 419.04 511.99 308.19 511.99 529.89"/>
        <polygon class="cls-18" points="703.99 419.04 511.99 529.89 319.99 419.04 319.99 -130.59 703.99 -130.59 703.99 419.04"/>
        <polygon class="cls-21" points="423.99 257.39 511.99 308.19 511.99 206.58 423.99 155.77 423.99 257.39"/>
        <polygon class="cls-26" points="511.99 308.19 511.99 206.58 599.99 155.77 599.99 257.39 511.99 308.19"/>
        <polygon class="cls-8" points="511.99 104.96 423.99 155.77 511.99 206.58 599.99 155.77 511.99 104.96"/>
        <polygon class="cls-22" points="319.99 317.43 407.99 368.24 407.99 266.62 319.99 215.82 319.99 317.43"/>
        <polygon class="cls-25" points="407.99 368.24 407.99 266.62 495.99 215.82 495.99 317.43 407.99 368.24"/>
        <polygon class="cls-38" points="407.99 165.01 319.99 215.82 407.99 266.62 495.99 215.82 407.99 165.01"/>
        <polygon class="cls-24" points="527.99 317.43 615.99 368.24 615.99 266.62 527.99 215.82 527.99 317.43"/>
        <polygon class="cls-27" points="615.99 368.24 615.99 266.62 703.99 215.82 703.99 317.43 615.99 368.24"/>
        <polygon class="cls-39" points="615.99 165.01 527.99 215.82 615.99 266.62 703.99 215.82 615.99 165.01"/>
        <polygon class="cls-40" points="511.99 225.05 423.99 275.86 511.99 326.67 599.99 275.86 511.99 225.05"/>
        <polygon class="cls-28" points="511.99 428.28 511.99 326.67 599.99 275.86 599.99 377.47 511.99 428.28"/>
        <polygon class="cls-23" points="423.99 377.47 511.99 428.28 511.99 326.67 423.99 275.86 423.99 377.47"/>
        <g>
          <g>
            <g class="cls-43">
              <path class="cls-54" d="M180.88,646.99c-11.76-6.76-30.75-6.76-42.43,0-11.67,6.75-11.61,17.7.15,24.46,11.76,6.76,30.75,6.76,42.42,0,11.68-6.76,11.62-17.71-.14-24.47"/>
            </g>
            <polygon class="cls-1" points="159.74 631.36 111.49 659.22 159.74 687.08 207.99 659.22 159.74 631.36"/>
          </g>
          <g>
            <g class="cls-42">
              <path class="cls-45" d="M173.83,651.07c-7.84-4.5-20.5-4.5-28.29,0-7.78,4.5-7.74,11.8.1,16.31,7.84,4.5,20.5,4.5,28.28,0,7.79-4.5,7.75-11.81-.09-16.31"/>
            </g>
            <polygon class="cls-1" points="159.74 639.94 126.34 659.22 159.74 678.51 193.14 659.22 159.74 639.94"/>
          </g>
          <g>
            <path class="cls-29" d="M167.59,654.68c-4.36-2.51-11.41-2.51-15.75,0-4.33,2.51-4.31,6.57.06,9.08,4.36,2.51,11.41,2.51,15.74,0,4.33-2.51,4.31-6.57-.05-9.08"/>
            <polygon class="cls-1" points="159.74 648.51 141.18 659.22 159.74 669.94 178.3 659.22 159.74 648.51"/>
          </g>
          <path class="cls-20" d="M170.87,465.23h-22.27v193.99c.01,1.64,1.11,3.29,3.29,4.54,4.36,2.51,11.41,2.51,15.74,0,2.17-1.25,3.25-2.9,3.24-4.54v-193.99Z"/>
        </g>
        <g>
          <g>
            <g class="cls-43">
              <path class="cls-54" d="M884.88,646.99c-11.76-6.76-30.75-6.76-42.43,0-11.67,6.75-11.61,17.7.15,24.46,11.76,6.76,30.75,6.76,42.42,0,11.68-6.76,11.62-17.71-.14-24.47"/>
            </g>
            <polygon class="cls-1" points="863.74 631.36 815.49 659.22 863.74 687.08 911.99 659.22 863.74 631.36"/>
          </g>
          <g>
            <g class="cls-42">
              <path class="cls-45" d="M877.83,651.07c-7.84-4.5-20.5-4.5-28.29,0-7.78,4.5-7.74,11.8.1,16.31s20.5,4.5,28.28,0c7.79-4.5,7.75-11.81-.09-16.31"/>
            </g>
            <polygon class="cls-1" points="863.74 639.94 830.34 659.22 863.74 678.51 897.14 659.22 863.74 639.94"/>
          </g>
          <g>
            <path class="cls-29" d="M871.59,654.68c-4.36-2.51-11.41-2.51-15.75,0-4.33,2.51-4.31,6.57.06,9.08,4.36,2.51,11.41,2.51,15.74,0,4.33-2.51,4.31-6.57-.05-9.08"/>
            <polygon class="cls-1" points="863.74 648.51 845.18 659.22 863.74 669.94 882.3 659.22 863.74 648.51"/>
          </g>
          <path class="cls-19" d="M874.87,465.23h-22.27v193.99c.01,1.64,1.11,3.29,3.29,4.54,4.36,2.51,11.41,2.51,15.74,0,2.17-1.25,3.25-2.9,3.24-4.54v-193.99Z"/>
        </g>
      </g>
    </g>
  </g>
</svg>