<?xml version="1.0" encoding="UTF-8"?>
<svg id="Layer_4" data-name="Layer 4" xmlns="http://www.w3.org/2000/svg" xmlns:xlink="http://www.w3.org/1999/xlink" viewBox="0 0 42 42">
  <defs>
    <style>
      .cls-1 {
        fill: #f4f4f4;
      }

      .cls-2 {
        fill: url(#HEART_Gradient);
      }
    </style>
    <linearGradient id="HEART_Gradient" data-name="HEART Gradient" x1="8.19" y1="21" x2="33.81" y2="21" gradientUnits="userSpaceOnUse">
      <stop offset=".1" stop-color="#08bdba"/>
      <stop offset=".9" stop-color="#0f62fe"/>
    </linearGradient>
  </defs>
  <rect class="cls-1" x="0" y="0" width="42" height="42" rx="4" ry="4"/>
  <path id="asset-management" class="cls-2" d="M17.7,36.31l-.51-.51,1-1c.06-.06.13-.09.21-.1l7.32-.92c.36-.05.7-.21.95-.47l6.1-6.1c.41-.41.41-1.08,0-1.49-.41-.41-1.08-.41-1.49,0l-6.21,5.05c-.43.4-1,.65-1.63.65h-5v-.72h5c.4,0,.76-.14,1.05-.37h0s.12-.1.12-.1c.3-.3.49-.71.49-1.16,0-.35-.29-.64-.65-.64h-7.74v-.72h7.74c.75,0,1.37.61,1.37,1.36,0,.06,0,.13,0,.19l5-4.06c.66-.67,1.79-.67,2.48.02.69.69.69,1.82,0,2.51l-6.1,6.1c-.37.37-.86.61-1.38.67l-7.2.9-.91.92ZM8.7,36.31l-.51-.51,2.9-2.91c.21-2.92,2.65-5.2,5.61-5.2v.72c-2.62,0-4.77,2.04-4.9,4.65,0,.09-.04.17-.1.24l-3,3.01ZM25.45,24.41h-12c-.2,0-.36-.16-.36-.36v-15c0-.2.16-.36.36-.36h2.64v-2.64c0-.2.16-.36.36-.36h12c.2,0,.36.16.36.36v15c0,.2-.16.36-.36.36h-2.64v2.64c0,.2-.16.36-.36.36ZM13.81,23.69h11.28v-10.28h-3.64c-.2,0-.36-.16-.36-.36v-3.64h-7.28v14.28ZM25.81,20.69h2.28V6.41h-11.28v2.28h4.64c.1,0,.19.04.25.11l4,4c.07.07.11.16.11.26v7.64ZM21.81,12.69h2.77l-2.77-2.77v2.77ZM23.45,20.41h-8v-.72h8v.72ZM23.45,18.41h-8v-.72h8v.72ZM23.45,16.41h-8v-.72h8v.72Z"/>
</svg>