<?xml version="1.0" encoding="UTF-8"?>
<svg id="Layer_3" data-name="Layer 3" xmlns="http://www.w3.org/2000/svg" xmlns:xlink="http://www.w3.org/1999/xlink" viewBox="0 0 42 42">
  <defs>
    <style>
      .cls-1 {
        fill: #f4f4f4;
      }

      .cls-2 {
        fill: url(#HEART_Gradient);
      }
    </style>
    <linearGradient id="HEART_Gradient" data-name="HEART Gradient" x1="7.64" y1="21" x2="34.36" y2="21" gradientUnits="userSpaceOnUse">
      <stop offset=".1" stop-color="#08bdba"/>
      <stop offset=".9" stop-color="#0f62fe"/>
    </linearGradient>
  </defs>
  <rect class="cls-1" x="0" width="42" height="42" rx="4" ry="4"/>
  <path id="rocket" class="cls-2" d="M22,34.36c-.06,0-.12-.02-.18-.05-.11-.06-.18-.18-.18-.31v-6.69c-.11-.03-.21-.07-.31-.13l-5.08,5.07-.51-.51,5.07-5.07c-.11-.2-.18-.43-.18-.67,0-.75.61-1.36,1.36-1.36s1.36.61,1.36,1.36c0,.62-.42,1.15-1,1.31v6.05l4.28-2.57v-8.8c0-.1.04-.19.1-.25l4.17-4.17c1.76-1.76,2.72-4.09,2.72-6.58v-2.64h-2.64c-2.48,0-4.82.97-6.57,2.72l-4.17,4.17c-.07.07-.16.11-.25.11h-8.8l-2.57,4.28h6.05c.16-.58.69-1,1.31-1,.75,0,1.36.61,1.36,1.36s-.61,1.36-1.36,1.36c-.24,0-.47-.07-.67-.18l-5.07,5.07-.51-.51,5.07-5.07c-.06-.1-.1-.2-.13-.31h-6.69c-.13,0-.25-.07-.31-.18s-.06-.25,0-.36l3-5c.07-.11.18-.17.31-.17h8.85l4.07-4.07c1.89-1.89,4.41-2.93,7.08-2.93h3c.2,0,.36.16.36.36v3c0,2.68-1.04,5.19-2.93,7.08l-4.07,4.07v8.85c0,.13-.07.24-.17.31l-5,3c-.06.03-.12.05-.19.05ZM22,25.36c-.35,0-.64.29-.64.64s.29.64.64.64.64-.29.64-.64-.29-.64-.64-.64ZM16,19.36c-.35,0-.64.29-.64.64s.29.64.64.64.64-.29.64-.64-.29-.64-.64-.64ZM8.25,34.25l-.51-.51,13.07-13.07c-.11-.2-.18-.43-.18-.67,0-.75.61-1.36,1.36-1.36s1.36.61,1.36,1.36-.61,1.36-1.36,1.36c-.25,0-.47-.07-.67-.18l-13.07,13.07ZM22,19.36c-.35,0-.64.29-.64.64s.29.64.64.64.64-.29.64-.64-.29-.64-.64-.64Z"/>
</svg>