<?xml version="1.0" encoding="UTF-8"?>
<svg id="Layer_1" data-name="Layer 1" xmlns="http://www.w3.org/2000/svg" xmlns:xlink="http://www.w3.org/1999/xlink" viewBox="0 0 42 42">
  <defs>
    <style>
      .cls-1 {
        fill: url(#HEART_Gradient);
      }

      .cls-2 {
        fill: url(#HEART_Gradient-2);
      }

      .cls-3 {
        fill: #161616;
      }
    </style>
    <linearGradient id="HEART_Gradient" data-name="HEART Gradient" x1="0" y1="21" x2="42" y2="21" gradientUnits="userSpaceOnUse">
      <stop offset=".1" stop-color="#08bdba"/>
      <stop offset=".9" stop-color="#0f62fe"/>
    </linearGradient>
    <linearGradient id="HEART_Gradient-2" data-name="HEART Gradient" x1="6" y1="21" x2="36" y2="21" xlink:href="#HEART_Gradient"/>
  </defs>
  <g>
    <rect class="cls-3" x="0" width="42" height="42" rx="4" ry="4"/>
    <path class="cls-1" d="M38,1c1.65,0,3,1.35,3,3v34c0,1.65-1.35,3-3,3H4c-1.65,0-3-1.35-3-3V4c0-1.65,1.35-3,3-3h34M38,0H4C1.8,0,0,1.8,0,4v34C0,40.2,1.8,42,4,42h34c2.2,0,4-1.8,4-4V4C42,1.8,40.2,0,38,0h0Z"/>
  </g>
  <path id="library" class="cls-2" d="M36,36.36H6v-.72h1.64V12c0-.2.16-.36.36-.36h4.64v-5.64c0-.2.16-.36.36-.36h4c.2,0,.36.16.36.36v2.64h4.64c.2,0,.36.16.36.36v3.52l6.54-1.87c.09-.03.19-.01.28.03s.15.13.17.22l6,23c.05.19-.06.38-.25.44l-4.53,1.29h5.43v.72ZM22.36,35.64h5.17l-5.17-19.83v19.83ZM17.36,35.64h4.28V13.01h0v-3.65h-4.28s0,26.28,0,26.28ZM13.36,35.64h3.28V6.36h-3.28v29.28ZM8.36,35.64h4.28V12.36h-4.28v23.28ZM26.36,28.27l1.9,7.28,6.31-1.8-1.9-7.28-6.31,1.8ZM24.52,21.23l1.66,6.35,6.31-1.8-1.66-6.35-6.31,1.8ZM22.44,13.25l1.9,7.28,6.31-1.8-1.9-7.28-6.31,1.8ZM21,34.36h-3v-.72h3v.72ZM12,34.36h-3v-.72h3v.72ZM21,32.36h-3v-.72h3v.72ZM12,32.36h-3v-.72h3v.72ZM12,16.36h-3v-.72h3v.72ZM12,14.36h-3v-.72h3v.72ZM21,11.36h-3v-.72h3v.72Z"/>
</svg>