<?xml version="1.0" encoding="UTF-8"?>
<svg id="Layer_5" data-name="Layer 5" xmlns="http://www.w3.org/2000/svg" xmlns:xlink="http://www.w3.org/1999/xlink" viewBox="0 0 42 42">
  <defs>
    <style>
      .cls-1 {
        fill: #f4f4f4;
      }

      .cls-2 {
        fill: url(#HEART_Gradient);
      }
    </style>
    <linearGradient id="HEART_Gradient" data-name="HEART Gradient" x1="6" y1="21" x2="36" y2="21" gradientUnits="userSpaceOnUse">
      <stop offset=".1" stop-color="#08bdba"/>
      <stop offset=".9" stop-color="#0f62fe"/>
    </linearGradient>
  </defs>
  <rect class="cls-1" x="0" width="42" height="42" rx="4" ry="4"/>
  <path id="library" class="cls-2" d="M36,36.36H6v-.72h1.64V12c0-.2.16-.36.36-.36h4.64v-5.64c0-.2.16-.36.36-.36h4c.2,0,.36.16.36.36v2.64h4.64c.2,0,.36.16.36.36v3.52l6.54-1.87c.09-.03.19-.01.28.03s.15.13.17.22l6,23c.05.19-.06.38-.25.44l-4.53,1.29h5.43v.72ZM22.36,35.64h5.17l-5.17-19.83v19.83ZM17.36,35.64h4.28V13.01h0v-3.65h-4.28s0,26.28,0,26.28ZM13.36,35.64h3.28V6.36h-3.28v29.28ZM8.36,35.64h4.28V12.36h-4.28v23.28ZM26.36,28.27l1.9,7.28,6.31-1.8-1.9-7.28-6.31,1.8ZM24.52,21.23l1.66,6.35,6.31-1.8-1.66-6.35-6.31,1.8ZM22.44,13.25l1.9,7.28,6.31-1.8-1.9-7.28-6.31,1.8ZM21,34.36h-3v-.72h3v.72ZM12,34.36h-3v-.72h3v.72ZM21,32.36h-3v-.72h3v.72ZM12,32.36h-3v-.72h3v.72ZM12,16.36h-3v-.72h3v.72ZM12,14.36h-3v-.72h3v.72ZM21,11.36h-3v-.72h3v.72Z"/>
</svg>